<?xml version="1.0" encoding="UTF-8"?>
<svg id="Layer_1" data-name="Layer 1" xmlns="http://www.w3.org/2000/svg" viewBox="0 0 600 210">
  <defs>
    <style>
      .cls-1 {
        fill: #3d9dd8;
      }

      .cls-1, .cls-2, .cls-3 {
        stroke-width: 0px;
      }

      .cls-2 {
        fill: #7ce55e;
      }

      .cls-3 {
        fill: #f78bd8;
      }
    </style>
  </defs>
  <path class="cls-2" d="m178.7,28.48c-2.76,0-5,2.24-5,5v126.54c0,7.36-5.99,13.34-13.34,13.34s-13.34-5.99-13.34-13.34V49.98c0-12.87-10.47-23.34-23.34-23.34s-23.34,10.47-23.34,23.34v110.03c0,7.36-5.99,13.34-13.34,13.34s-13.34-5.99-13.34-13.34V49.98c0-12.87-10.47-23.34-23.34-23.34s-23.34,10.47-23.34,23.34v126.54c0,2.76,2.24,5,5,5s5-2.24,5-5V49.98c0-7.36,5.99-13.34,13.34-13.34s13.34,5.99,13.34,13.34v110.03c0,12.87,10.47,23.34,23.34,23.34s23.34-10.47,23.34-23.34V49.98c0-7.36,5.99-13.34,13.34-13.34s13.34,5.99,13.34,13.34v110.03c0,12.87,10.47,23.34,23.34,23.34s23.34-10.47,23.34-23.34V33.48c0-2.76-2.24-5-5-5Z"/>
  <g>
    <path class="cls-1" d="m300,60.55c-4.56,0-8.26,3.7-8.26,8.26s3.7,8.26,8.26,8.26,8.26-3.7,8.26-8.26-3.7-8.26-8.26-8.26Z"/>
    <path class="cls-1" d="m300,24.36c-4.56,0-8.26,3.7-8.26,8.26s3.7,8.26,8.26,8.26,8.26-3.7,8.26-8.26-3.7-8.26-8.26-8.26Z"/>
    <circle class="cls-1" cx="325.59" cy="79.41" r="8.26"/>
    <circle class="cls-1" cx="351.18" cy="53.82" r="8.26"/>
    <circle class="cls-1" cx="336.19" cy="105" r="8.26"/>
    <path class="cls-1" d="m372.37,96.74c-4.56,0-8.26,3.7-8.26,8.26s3.7,8.26,8.26,8.26,8.26-3.7,8.26-8.26-3.7-8.26-8.26-8.26Z"/>
    <circle class="cls-1" cx="325.59" cy="130.59" r="8.26"/>
    <circle class="cls-1" cx="351.18" cy="156.18" r="8.26"/>
    <path class="cls-1" d="m300,132.93c-4.56,0-8.26,3.7-8.26,8.26s3.7,8.26,8.26,8.26,8.26-3.7,8.26-8.26-3.7-8.26-8.26-8.26Z"/>
    <path class="cls-1" d="m300,169.11c-4.56,0-8.26,3.7-8.26,8.26s3.7,8.26,8.26,8.26,8.26-3.7,8.26-8.26-3.7-8.26-8.26-8.26Z"/>
    <path class="cls-1" d="m268.57,124.75c-3.23,3.23-3.23,8.46,0,11.68,3.23,3.23,8.46,3.23,11.68,0,3.23-3.23,3.23-8.46,0-11.68-3.23-3.23-8.46-3.23-11.68,0Z"/>
    <path class="cls-1" d="m242.98,150.33c-3.23,3.23-3.23,8.46,0,11.68,3.23,3.23,8.46,3.23,11.68,0,3.23-3.23,3.23-8.46,0-11.68-3.23-3.23-8.46-3.23-11.68,0Z"/>
    <path class="cls-1" d="m272.07,105c0-4.56-3.7-8.26-8.26-8.26s-8.26,3.7-8.26,8.26,3.7,8.26,8.26,8.26,8.26-3.7,8.26-8.26Z"/>
    <path class="cls-1" d="m235.89,105c0-4.56-3.7-8.26-8.26-8.26s-8.26,3.7-8.26,8.26,3.7,8.26,8.26,8.26,8.26-3.7,8.26-8.26Z"/>
    <path class="cls-1" d="m268.57,73.57c-3.23,3.23-3.23,8.46,0,11.68,3.23,3.23,8.46,3.23,11.68,0,3.23-3.23,3.23-8.46,0-11.68-3.23-3.23-8.46-3.23-11.68,0Z"/>
    <path class="cls-1" d="m254.67,59.67c3.23-3.23,3.23-8.46,0-11.68-3.23-3.23-8.46-3.23-11.68,0-3.23,3.23-3.23,8.46,0,11.68,3.23,3.23,8.46,3.23,11.68,0Z"/>
    <path class="cls-1" d="m275.47,45.77c4.22-1.75,6.22-6.58,4.47-10.79-1.75-4.22-6.58-6.22-10.79-4.47-4.22,1.75-6.22,6.58-4.47,10.79,1.75,4.22,6.58,6.22,10.79,4.47Z"/>
    <path class="cls-1" d="m324.53,45.77c4.22,1.75,9.05-.26,10.79-4.47,1.75-4.22-.26-9.05-4.47-10.79-4.22-1.75-9.05.26-10.79,4.47-1.75,4.22.26,9.05,4.47,10.79Z"/>
    <path class="cls-1" d="m359.23,80.47c1.75,4.22,6.58,6.22,10.79,4.47,4.22-1.75,6.22-6.58,4.47-10.79-1.75-4.22-6.58-6.22-10.79-4.47-4.22,1.75-6.22,6.58-4.47,10.79Z"/>
    <path class="cls-1" d="m370.03,125.06c-4.22-1.75-9.05.26-10.79,4.47-1.75,4.22.26,9.05,4.47,10.79,4.22,1.75,9.05-.26,10.79-4.47,1.75-4.22-.26-9.05-4.47-10.79Z"/>
    <path class="cls-1" d="m324.53,164.23c-4.22,1.75-6.22,6.58-4.47,10.79,1.75,4.22,6.58,6.22,10.79,4.47,4.22-1.75,6.22-6.58,4.47-10.79-1.75-4.22-6.58-6.22-10.79-4.47Z"/>
    <path class="cls-1" d="m275.47,164.23c-4.22-1.75-9.05.26-10.79,4.47-1.75,4.22.26,9.05,4.47,10.79,4.22,1.75,9.05-.26,10.79-4.47,1.75-4.22-.26-9.05-4.47-10.79Z"/>
    <path class="cls-1" d="m240.77,129.53c-1.75-4.22-6.58-6.22-10.79-4.47-4.22,1.75-6.22,6.58-4.47,10.79,1.75,4.22,6.58,6.22,10.79,4.47,4.22-1.75,6.22-6.58,4.47-10.79Z"/>
    <path class="cls-1" d="m229.97,84.94c4.22,1.75,9.05-.26,10.79-4.47,1.75-4.22-.26-9.05-4.47-10.79-4.22-1.75-9.05.26-10.79,4.47-1.75,4.22.26,9.05,4.47,10.79Z"/>
  </g>
  <g>
    <path class="cls-3" d="m567.72,28.92h-142.17c-2.76,0-5,2.24-5,5s2.24,5,5,5h137.17v137.17c0,2.76,2.24,5,5,5s5-2.24,5-5V33.92c0-2.76-2.24-5-5-5Z"/>
    <path class="cls-3" d="m535.9,60.74h-110.35c-2.76,0-5,2.24-5,5s2.24,5,5,5h105.35v105.35c0,2.76,2.24,5,5,5s5-2.24,5-5v-110.35c0-2.76-2.24-5-5-5Z"/>
    <path class="cls-3" d="m504.08,92.56h-78.53c-2.76,0-5,2.24-5,5s2.24,5,5,5h73.53v73.53c0,2.76,2.24,5,5,5s5-2.24,5-5v-78.53c0-2.76-2.24-5-5-5Z"/>
    <path class="cls-3" d="m472.26,124.38h-46.71c-2.76,0-5,2.24-5,5s2.24,5,5,5h41.72v41.72c0,2.76,2.24,5,5,5s5-2.24,5-5v-46.71c0-2.76-2.24-5-5-5Z"/>
    <path class="cls-3" d="m440.44,156.2h-14.89c-2.76,0-5,2.24-5,5s2.24,5,5,5h9.9v9.9c0,2.76,2.24,5,5,5s5-2.24,5-5v-14.89c0-2.76-2.24-5-5-5Z"/>
  </g>
</svg>