<?xml version="1.0" encoding="UTF-8"?>
<svg id="Layer_1" data-name="Layer 1" xmlns="http://www.w3.org/2000/svg" viewBox="0 0 600 210">
  <defs>
    <style>
      .cls-1 {
        fill: #f96e43;
      }

      .cls-1, .cls-2, .cls-3 {
        stroke-width: 0px;
      }

      .cls-2 {
        fill: #189b5c;
      }

      .cls-3 {
        fill: #7ce55e;
      }
    </style>
  </defs>
  <g>
    <path class="cls-2" d="m439.64,100.86c-7.52-5.6-14.02-10.43-14.02-19.85s6.49-14.25,14.02-19.85c8.46-6.29,18.04-13.43,18.04-27.86,0-2.76-2.24-5-5-5s-5,2.24-5,5c0,9.42-6.49,14.25-14.02,19.85-8.46,6.29-18.04,13.43-18.04,27.86s9.59,21.57,18.04,27.87c7.52,5.6,14.02,10.43,14.02,19.85s-6.5,14.25-14.02,19.85c-8.46,6.29-18.04,13.43-18.04,27.87,0,2.76,2.24,5,5,5s5-2.24,5-5c0-9.42,6.49-14.25,14.02-19.85,8.46-6.29,18.04-13.43,18.04-27.87s-9.59-21.57-18.04-27.87Z"/>
    <path class="cls-2" d="m479.62,100.95c-7.52-5.6-14.02-10.43-14.02-19.85s6.49-14.25,14.02-19.85c8.46-6.29,18.04-13.43,18.04-27.86,0-2.76-2.24-5-5-5s-5,2.24-5,5c0,9.42-6.49,14.25-14.01,19.85-8.46,6.29-18.04,13.43-18.04,27.87s9.59,21.57,18.04,27.87c7.52,5.6,14.02,10.43,14.02,19.85s-6.49,14.25-14.02,19.85c-8.46,6.29-18.04,13.43-18.04,27.87,0,2.76,2.24,5,5,5s5-2.24,5-5c0-9.42,6.5-14.25,14.02-19.85,8.46-6.29,18.04-13.43,18.04-27.87s-9.59-21.57-18.04-27.87Z"/>
    <path class="cls-2" d="m519.61,101.03c-7.52-5.6-14.02-10.43-14.02-19.85s6.49-14.25,14.02-19.85c8.46-6.29,18.04-13.43,18.04-27.86,0-2.76-2.24-5-5-5s-5,2.24-5,5c0,9.42-6.49,14.25-14.02,19.85-8.46,6.29-18.04,13.43-18.04,27.86s9.59,21.57,18.04,27.87c7.52,5.6,14.02,10.43,14.02,19.85s-6.5,14.25-14.02,19.85c-8.46,6.29-18.04,13.43-18.04,27.87,0,2.76,2.24,5,5,5s5-2.24,5-5c0-9.42,6.49-14.25,14.02-19.85,8.46-6.29,18.04-13.43,18.04-27.87s-9.59-21.57-18.04-27.87Z"/>
    <path class="cls-2" d="m559.6,101.12c-7.52-5.6-14.02-10.43-14.02-19.85s6.49-14.25,14.02-19.85c8.46-6.29,18.04-13.43,18.04-27.86,0-2.76-2.24-5-5-5s-5,2.24-5,5c0,9.42-6.49,14.25-14.01,19.85-8.46,6.29-18.04,13.43-18.04,27.87s9.59,21.57,18.04,27.87c7.52,5.6,14.02,10.43,14.02,19.85s-6.49,14.25-14.02,19.85c-8.46,6.29-18.04,13.43-18.04,27.87,0,2.76,2.24,5,5,5s5-2.24,5-5c0-9.42,6.5-14.25,14.02-19.85,8.46-6.29,18.04-13.43,18.04-27.87s-9.59-21.57-18.04-27.87Z"/>
  </g>
  <g>
    <path class="cls-3" d="m176.43,28.92H34.26c-2.76,0-5,2.24-5,5s2.24,5,5,5h137.17v137.17c0,2.76,2.24,5,5,5s5-2.24,5-5V33.92c0-2.76-2.24-5-5-5Z"/>
    <path class="cls-3" d="m144.61,60.74H34.26c-2.76,0-5,2.24-5,5s2.24,5,5,5h105.35v105.35c0,2.76,2.24,5,5,5s5-2.24,5-5v-110.35c0-2.76-2.24-5-5-5Z"/>
    <path class="cls-3" d="m112.79,92.56H34.26c-2.76,0-5,2.24-5,5s2.24,5,5,5h73.53v73.53c0,2.76,2.24,5,5,5s5-2.24,5-5v-78.53c0-2.76-2.24-5-5-5Z"/>
    <path class="cls-3" d="m80.97,124.38h-46.71c-2.76,0-5,2.24-5,5s2.24,5,5,5h41.72v41.72c0,2.76,2.24,5,5,5s5-2.24,5-5v-46.71c0-2.76-2.24-5-5-5Z"/>
    <path class="cls-3" d="m49.15,156.2h-14.89c-2.76,0-5,2.24-5,5s2.24,5,5,5h9.9v9.9c0,2.76,2.24,5,5,5s5-2.24,5-5v-14.89c0-2.76-2.24-5-5-5Z"/>
  </g>
  <path class="cls-1" d="m381.38,92.49l-30.44-3.95s-.06-.12,0-.21l22.26-21.04c4.74-4.48,5.38-11.3,1.54-16.58-3.84-5.28-10.52-6.78-16.25-3.66l-26.95,14.7s-.12-.06-.13-.17l5.64-30.11c1.2-6.41-2.3-12.3-8.5-14.32-6.21-2.02-12.49.69-15.29,6.59l-13.13,27.67-.03.06s-.14.02-.2-.06l-13.13-27.67c-2.8-5.89-9.08-8.6-15.29-6.59-6.21,2.02-9.7,7.9-8.5,14.32l5.65,30.17s-.1.1-.2.07l-26.89-14.67c-5.73-3.13-12.41-1.62-16.24,3.66-3.84,5.28-3.2,12.1,1.54,16.58l22.3,21.09s-.02.14-.12.18l-30.37,3.94c-6.47.84-10.99,5.98-10.99,12.51s4.52,11.67,10.99,12.51l30.44,3.95s.06.12,0,.21l-22.26,21.04c-4.74,4.48-5.38,11.3-1.54,16.58,3.84,5.28,10.52,6.78,16.24,3.66l26.95-14.7s.12.06.13.17l-5.64,30.11c-1.2,6.41,2.29,12.3,8.5,14.32,1.37.45,2.75.66,4.09.66,4.73,0,9.02-2.66,11.2-7.25l13.17-27.73s.14-.02.2.06l13.13,27.67c2.8,5.89,9.08,8.6,15.29,6.59,6.21-2.02,9.7-7.9,8.5-14.32l-5.65-30.17s.1-.1.2-.07l26.89,14.67c5.73,3.12,12.41,1.62,16.25-3.66,3.84-5.28,3.2-12.1-1.54-16.58l-22.3-21.09s.02-.14.12-.17l30.37-3.94c6.47-.84,10.99-5.98,10.99-12.51s-4.52-11.67-10.99-12.51Zm-1.29,15.11l-30.37,3.94c-3.92.51-7.11,3.16-8.33,6.91-1.22,3.75-.2,7.77,2.67,10.48l22.26,21.04c1.46,1.38.82,2.75.32,3.44s-1.62,1.72-3.37.76l-26.89-14.67c-3.46-1.89-7.6-1.62-10.8.7-3.19,2.32-4.73,6.17-4,10.05l5.64,30.11c.37,1.97-.95,2.71-1.77,2.97-.82.27-2.32.44-3.18-1.37l-13.13-27.67c-1.69-3.57-5.2-5.78-9.14-5.78s-7.45,2.22-9.14,5.78l-13.13,27.67c-.86,1.81-2.36,1.63-3.18,1.37-.82-.27-2.14-1.01-1.77-2.97l5.64-30.11c.73-3.88-.81-7.73-4-10.05-1.78-1.29-3.85-1.95-5.94-1.95-1.66,0-3.32.41-4.86,1.25l-26.89,14.67c-1.76.96-2.87-.06-3.37-.76-.51-.7-1.14-2.07.32-3.44l22.26-21.04c2.87-2.71,3.89-6.73,2.67-10.48-1.22-3.76-4.41-6.4-8.33-6.91l-30.38-3.94c-1.99-.26-2.28-1.74-2.28-2.6s.3-2.34,2.28-2.6l30.37-3.94c3.92-.51,7.11-3.16,8.33-6.91,1.22-3.75.2-7.77-2.67-10.48l-22.26-21.04c-1.46-1.38-.83-2.75-.32-3.44.51-.7,1.62-1.72,3.37-.76l26.89,14.67c3.47,1.89,7.6,1.62,10.8-.7,3.19-2.32,4.73-6.17,4-10.05l-5.64-30.11c-.37-1.97.95-2.71,1.77-2.97.82-.27,2.32-.44,3.18,1.37l13.13,27.67c1.69,3.57,5.2,5.78,9.14,5.78s7.45-2.22,9.14-5.78l13.13-27.67c.86-1.81,2.36-1.63,3.18-1.37.82.27,2.13,1.01,1.77,2.97l-5.64,30.11c-.73,3.88.81,7.73,4,10.05,3.2,2.32,7.33,2.59,10.8.7l26.89-14.67c1.76-.96,2.87.06,3.37.76.51.7,1.14,2.07-.32,3.44l-22.26,21.04c-2.87,2.71-3.89,6.73-2.67,10.48,1.22,3.75,4.41,6.4,8.33,6.91l30.38,3.94c1.99.26,2.28,1.74,2.28,2.6s-.3,2.34-2.28,2.6Z"/>
</svg>