<?xml version="1.0" encoding="UTF-8"?>
<svg id="Layer_1" data-name="Layer 1" xmlns="http://www.w3.org/2000/svg" viewBox="0 0 600 210">
  <defs>
    <style>
      .cls-1 {
        fill: #f96e43;
      }

      .cls-1, .cls-2, .cls-3 {
        stroke-width: 0px;
      }

      .cls-2 {
        fill: #3d9dd8;
      }

      .cls-3 {
        fill: #7ce55e;
      }
    </style>
  </defs>
  <path class="cls-1" d="m131.6,26.59c-11,0-21.17,3.64-29.36,9.79-8.19-6.14-18.36-9.79-29.36-9.79-27.04,0-49.04,22-49.04,49.04v58.73c0,27.04,22,49.04,49.04,49.04,11,0,21.17-3.64,29.36-9.79,8.19,6.14,18.36,9.79,29.36,9.79,27.04,0,49.04-22,49.04-49.04v-58.73c0-27.04-22-49.04-49.04-49.04Zm-29.36,133.46c-6.02-6.87-9.68-15.86-9.68-25.69v-58.73c0-9.83,3.66-18.82,9.68-25.69,6.02,6.87,9.68,15.86,9.68,25.69v58.73c0,9.83-3.66,18.82-9.68,25.69Zm-68.41-25.69v-58.73c0-21.53,17.51-39.04,39.04-39.04,8.1,0,15.64,2.48,21.88,6.73-7.59,8.64-12.2,19.95-12.2,32.32v58.73c0,12.37,4.61,23.68,12.2,32.32-6.25,4.24-13.78,6.73-21.88,6.73-21.53,0-39.04-17.52-39.04-39.04Zm136.81,0c0,21.53-17.51,39.04-39.04,39.04-8.1,0-15.64-2.48-21.88-6.73,7.59-8.64,12.2-19.95,12.2-32.32v-58.73c0-12.37-4.61-23.68-12.2-32.32,6.25-4.24,13.78-6.73,21.88-6.73,21.53,0,39.04,17.51,39.04,39.04v58.73Z"/>
  <g>
    <path class="cls-3" d="m241.34,100.86c-7.53-5.6-14.03-10.44-14.03-19.87s6.5-14.26,14.03-19.86c8.46-6.3,18.05-13.44,18.05-27.88,0-2.76-2.24-5-5-5s-5,2.24-5,5c0,9.42-6.5,14.26-14.03,19.86-8.46,6.3-18.05,13.44-18.05,27.88s9.59,21.59,18.05,27.89c7.53,5.6,14.03,10.44,14.03,19.87s-6.5,14.26-14.03,19.87c-8.46,6.3-18.05,13.44-18.05,27.89,0,2.76,2.24,5,5,5s5-2.24,5-5c0-9.43,6.5-14.26,14.03-19.87,8.46-6.3,18.05-13.44,18.05-27.89s-9.59-21.59-18.05-27.89Z"/>
    <path class="cls-3" d="m281.35,100.94c-7.53-5.6-14.03-10.44-14.03-19.87s6.5-14.26,14.03-19.86c8.46-6.3,18.05-13.44,18.05-27.88,0-2.76-2.24-5-5-5s-5,2.24-5,5c0,9.42-6.5,14.26-14.02,19.86-8.46,6.3-18.06,13.44-18.06,27.88s9.59,21.59,18.05,27.89c7.53,5.6,14.03,10.44,14.03,19.87s-6.5,14.26-14.03,19.87c-8.46,6.3-18.05,13.44-18.05,27.89,0,2.76,2.24,5,5,5s5-2.24,5-5c0-9.43,6.5-14.26,14.03-19.87,8.46-6.3,18.05-13.44,18.05-27.89s-9.59-21.59-18.05-27.89Z"/>
    <path class="cls-3" d="m321.37,101.03c-7.53-5.6-14.03-10.44-14.03-19.87s6.5-14.26,14.03-19.86c8.46-6.3,18.05-13.44,18.05-27.88,0-2.76-2.24-5-5-5s-5,2.24-5,5c0,9.42-6.5,14.26-14.03,19.86-8.46,6.3-18.05,13.44-18.05,27.88s9.59,21.59,18.05,27.89c7.53,5.6,14.03,10.44,14.03,19.87s-6.5,14.26-14.03,19.87c-8.46,6.3-18.05,13.44-18.05,27.89,0,2.76,2.24,5,5,5s5-2.24,5-5c0-9.43,6.5-14.26,14.03-19.87,8.46-6.3,18.05-13.44,18.05-27.89s-9.59-21.59-18.05-27.89Z"/>
    <path class="cls-3" d="m361.38,101.11c-7.53-5.6-14.03-10.44-14.03-19.87s6.5-14.26,14.03-19.86c8.46-6.3,18.05-13.44,18.05-27.88,0-2.76-2.24-5-5-5s-5,2.24-5,5c0,9.42-6.5,14.26-14.02,19.86-8.46,6.3-18.06,13.44-18.06,27.89s9.59,21.59,18.05,27.89c7.53,5.6,14.03,10.44,14.03,19.87s-6.5,14.26-14.03,19.87c-8.46,6.3-18.05,13.44-18.05,27.89,0,2.76,2.24,5,5,5s5-2.24,5-5c0-9.43,6.5-14.26,14.03-19.87,8.46-6.3,18.05-13.44,18.05-27.89s-9.59-21.59-18.05-27.89Z"/>
  </g>
  <path class="cls-2" d="m539.59,105l37.93-67.22c.87-1.55.86-3.44-.04-4.98-.9-1.53-2.54-2.48-4.32-2.48h-157.27c-1.78,0-3.42.94-4.32,2.48-.9,1.54-.91,3.43-.04,4.98l37.93,67.22-37.93,67.22c-.87,1.55-.86,3.44.04,4.98.9,1.53,2.54,2.48,4.32,2.48h157.27c1.78,0,3.42-.94,4.32-2.48.9-1.54.91-3.43.04-4.98l-37.93-67.22Zm-5.74-10.17l-30.75-54.5h61.51l-30.75,54.5Zm-5.74,10.17l-33.58,59.5-33.58-59.5,33.58-59.5,33.58,59.5Zm-103.65-64.67h61.51l-30.75,54.5-30.75-54.5Zm30.75,74.85l30.75,54.5h-61.51l30.75-54.5Zm47.88,54.5l30.75-54.5,30.75,54.5h-61.51Z"/>
</svg>