<?xml version="1.0" encoding="UTF-8"?>
<svg id="Layer_1" data-name="Layer 1" xmlns="http://www.w3.org/2000/svg" viewBox="0 0 600 210">
  <defs>
    <style>
      .cls-1 {
        fill: #189b5c;
      }

      .cls-1, .cls-2, .cls-3 {
        stroke-width: 0px;
      }

      .cls-2 {
        fill: #3d9dd8;
      }

      .cls-3 {
        fill: #ffb41d;
      }
    </style>
  </defs>
  <g>
    <path class="cls-2" d="m105.34,131.23c-4.57,0-8.27,3.7-8.27,8.27s3.7,8.27,8.27,8.27,8.27-3.7,8.27-8.27-3.7-8.27-8.27-8.27Z"/>
    <path class="cls-2" d="m105.34,165.73c-4.57,0-8.27,3.7-8.27,8.27s3.7,8.27,8.27,8.27,8.27-3.7,8.27-8.27-3.7-8.27-8.27-8.27Z"/>
    <path class="cls-2" d="m105.34,27.73c-4.57,0-8.27,3.7-8.27,8.27s3.7,8.27,8.27,8.27,8.27-3.7,8.27-8.27-3.7-8.27-8.27-8.27Z"/>
    <path class="cls-2" d="m105.34,62.23c-4.57,0-8.27,3.7-8.27,8.27s3.7,8.27,8.27,8.27,8.27-3.7,8.27-8.27-3.7-8.27-8.27-8.27Z"/>
    <path class="cls-2" d="m32.42,96.73c-4.57,0-8.27,3.7-8.27,8.27s3.7,8.27,8.27,8.27,8.27-3.7,8.27-8.27-3.7-8.27-8.27-8.27Z"/>
    <path class="cls-2" d="m32.42,131.23c-4.57,0-8.27,3.7-8.27,8.27s3.7,8.27,8.27,8.27,8.27-3.7,8.27-8.27-3.7-8.27-8.27-8.27Z"/>
    <path class="cls-2" d="m32.42,165.73c-4.57,0-8.27,3.7-8.27,8.27s3.7,8.27,8.27,8.27,8.27-3.7,8.27-8.27-3.7-8.27-8.27-8.27Z"/>
    <path class="cls-2" d="m32.42,62.23c-4.57,0-8.27,3.7-8.27,8.27s3.7,8.27,8.27,8.27,8.27-3.7,8.27-8.27-3.7-8.27-8.27-8.27Z"/>
    <circle class="cls-2" cx="68.88" cy="105" r="8.27"/>
    <circle class="cls-2" cx="68.88" cy="139.5" r="8.27"/>
    <circle class="cls-2" cx="68.88" cy="174" r="8.27"/>
    <circle class="cls-2" cx="68.88" cy="36" r="8.27"/>
    <circle class="cls-2" cx="68.88" cy="70.5" r="8.27"/>
    <path class="cls-2" d="m178.27,96.73c-4.57,0-8.27,3.7-8.27,8.27s3.7,8.27,8.27,8.27,8.27-3.7,8.27-8.27-3.7-8.27-8.27-8.27Z"/>
    <path class="cls-2" d="m178.27,131.23c-4.57,0-8.27,3.7-8.27,8.27s3.7,8.27,8.27,8.27,8.27-3.7,8.27-8.27-3.7-8.27-8.27-8.27Z"/>
    <path class="cls-2" d="m178.27,44.27c4.57,0,8.27-3.7,8.27-8.27s-3.7-8.27-8.27-8.27-8.27,3.7-8.27,8.27,3.7,8.27,8.27,8.27Z"/>
    <path class="cls-2" d="m178.27,62.23c-4.57,0-8.27,3.7-8.27,8.27s3.7,8.27,8.27,8.27,8.27-3.7,8.27-8.27-3.7-8.27-8.27-8.27Z"/>
    <circle class="cls-2" cx="141.81" cy="105" r="8.27"/>
    <circle class="cls-2" cx="141.81" cy="139.5" r="8.27"/>
    <circle class="cls-2" cx="141.81" cy="174" r="8.27"/>
    <circle class="cls-2" cx="141.81" cy="36" r="8.27"/>
    <circle class="cls-2" cx="141.81" cy="70.5" r="8.27"/>
  </g>
  <path class="cls-3" d="m571.33,110c2.76,0,5-2.24,5-5s-2.24-5-5-5h-25.64v-33.05h25.64c2.76,0,5-2.24,5-5s-2.24-5-5-5h-25.64v-25.65c0-2.76-2.24-5-5-5s-5,2.24-5,5v25.65h-33.05v-25.65c0-2.76-2.24-5-5-5s-5,2.24-5,5v25.65h-33.05v-25.65c0-2.76-2.24-5-5-5s-5,2.24-5,5v25.65h-25.64c-2.76,0-5,2.24-5,5s2.24,5,5,5h25.64v33.05h-25.64c-2.76,0-5,2.24-5,5s2.24,5,5,5h25.64v33.05h-25.64c-2.76,0-5,2.24-5,5s2.24,5,5,5h25.64v25.64c0,2.76,2.24,5,5,5s5-2.24,5-5v-25.64h33.05v25.64c0,2.76,2.24,5,5,5s5-2.24,5-5v-25.64h33.05v25.64c0,2.76,2.24,5,5,5s5-2.24,5-5v-25.64h25.64c2.76,0,5-2.24,5-5s-2.24-5-5-5h-25.64v-33.05h25.64Zm-35.64-43.05v33.05h-33.05v-33.05h33.05Zm-76.11,0h33.05v33.05h-33.05v-33.05Zm0,76.11v-33.05h33.05v33.05h-33.05Zm76.11,0h-33.05v-33.05h33.05v33.05Z"/>
  <g>
    <path class="cls-1" d="m301.48,23.62c-44.88,0-81.38,36.51-81.38,81.38s36.51,81.38,81.38,81.38,81.38-36.51,81.38-81.38-36.51-81.38-81.38-81.38Zm0,152.77c-39.36,0-71.38-32.02-71.38-71.38s32.02-71.38,71.38-71.38,71.38,32.02,71.38,71.38-32.02,71.38-71.38,71.38Z"/>
    <path class="cls-1" d="m301.48,54.58c-27.8,0-50.42,22.62-50.42,50.42s22.62,50.42,50.42,50.42,50.42-22.62,50.42-50.42-22.62-50.42-50.42-50.42Zm0,90.84c-22.29,0-40.42-18.13-40.42-40.42s18.13-40.42,40.42-40.42,40.42,18.13,40.42,40.42-18.13,40.42-40.42,40.42Z"/>
    <path class="cls-1" d="m301.48,84.52c-11.29,0-20.48,9.19-20.48,20.48s9.19,20.48,20.48,20.48,20.48-9.19,20.48-20.48-9.19-20.48-20.48-20.48Zm0,30.97c-5.78,0-10.48-4.7-10.48-10.48s4.7-10.48,10.48-10.48,10.48,4.7,10.48,10.48-4.7,10.48-10.48,10.48Z"/>
  </g>
</svg>