<?xml version="1.0" encoding="UTF-8"?>
<svg id="Layer_1" data-name="Layer 1" xmlns="http://www.w3.org/2000/svg" viewBox="0 0 600 210">
  <defs>
    <style>
      .cls-1 {
        fill: #3d9dd8;
      }

      .cls-1, .cls-2, .cls-3 {
        stroke-width: 0px;
      }

      .cls-2 {
        fill: #7ce55e;
      }

      .cls-3 {
        fill: #ffb41d;
      }
    </style>
  </defs>
  <g>
    <path class="cls-2" d="m374.34,32.57c-.03-.15-.09-.29-.13-.43-.05-.17-.09-.34-.15-.5-.07-.17-.17-.33-.26-.5-.07-.12-.12-.25-.2-.36-.37-.55-.84-1.02-1.39-1.39-.12-.08-.25-.13-.37-.2-.16-.09-.32-.19-.49-.26-.16-.07-.33-.11-.5-.16-.14-.04-.28-.1-.43-.13-.32-.06-.65-.1-.98-.1h-49.49c-2.76,0-5,2.24-5,5s2.24,5,5,5h37.42l-40.95,40.95c-1.95,1.95-1.95,5.12,0,7.07.98.98,2.26,1.46,3.54,1.46s2.56-.49,3.54-1.46l40.95-40.95v37.42c0,2.76,2.24,5,5,5s5-2.24,5-5v-49.49c0-.33-.03-.66-.1-.98Z"/>
    <path class="cls-2" d="m284.82,32.14c-.05-.17-.09-.34-.15-.5-.07-.17-.17-.33-.26-.5-.07-.12-.12-.25-.2-.36-.37-.55-.84-1.02-1.39-1.39-.12-.08-.25-.13-.37-.2-.16-.09-.32-.19-.49-.26-.16-.07-.33-.11-.5-.16-.14-.04-.28-.1-.43-.13-.32-.06-.65-.1-.98-.1h-49.49c-2.76,0-5,2.24-5,5s2.24,5,5,5h37.42l-40.95,40.95c-1.95,1.95-1.95,5.12,0,7.07.98.98,2.26,1.46,3.54,1.46s2.56-.49,3.54-1.46l40.95-40.95v37.42c0,2.76,2.24,5,5,5s5-2.24,5-5v-49.49c0-.33-.03-.66-.1-.98-.03-.15-.09-.29-.13-.43Z"/>
    <path class="cls-2" d="m372.98,123.43c-1.95-1.95-5.12-1.95-7.07,0l-40.95,40.95v-37.42c0-2.76-2.24-5-5-5s-5,2.24-5,5v49.49c0,.33.03.66.1.98.03.15.09.29.13.44.05.17.09.34.15.5.07.17.17.33.26.5.07.12.12.25.2.36.37.55.84,1.02,1.39,1.39.12.08.25.13.37.2.16.09.32.19.49.26.16.07.33.11.5.15.15.04.28.1.43.13.32.06.65.1.98.1h49.49c2.76,0,5-2.24,5-5s-2.24-5-5-5h-37.42l40.95-40.95c1.95-1.95,1.95-5.12,0-7.07Z"/>
    <path class="cls-2" d="m284.82,125.55c-.05-.17-.09-.34-.15-.5-.07-.17-.17-.33-.26-.5-.07-.12-.12-.25-.2-.36-.37-.55-.84-1.02-1.39-1.39-.12-.08-.25-.13-.37-.2-.16-.09-.32-.19-.49-.26-.16-.07-.33-.11-.5-.16-.14-.04-.28-.1-.43-.13-.32-.06-.65-.1-.98-.1h-49.49c-2.76,0-5,2.24-5,5s2.24,5,5,5h37.42l-40.95,40.95c-1.95,1.95-1.95,5.12,0,7.07.98.98,2.26,1.46,3.54,1.46s2.56-.49,3.54-1.46l40.95-40.95v37.42c0,2.76,2.24,5,5,5s5-2.24,5-5v-49.49c0-.33-.03-.66-.1-.98-.03-.15-.09-.29-.13-.43Z"/>
  </g>
  <path class="cls-1" d="m130.62,26.65c-11,0-21.16,3.64-29.34,9.78-8.19-6.14-18.35-9.78-29.34-9.78-27.02,0-49.01,21.99-49.01,49.01v58.68c0,27.02,21.99,49.01,49.01,49.01,11,0,21.16-3.64,29.34-9.78,8.19,6.14,18.35,9.78,29.34,9.78,27.02,0,49.01-21.99,49.01-49.01v-58.68c0-27.02-21.99-49.01-49.01-49.01Zm-29.34,133.37c-6.02-6.87-9.67-15.85-9.67-25.67v-58.68c0-9.83,3.66-18.81,9.67-25.67,6.02,6.87,9.67,15.85,9.67,25.67v58.68c0,9.83-3.66,18.81-9.67,25.67Zm-68.36-25.67v-58.68c0-21.51,17.5-39.02,39.02-39.02,8.1,0,15.63,2.48,21.87,6.72-7.58,8.63-12.19,19.93-12.19,32.3v58.68c0,12.36,4.61,23.66,12.19,32.3-6.24,4.24-13.77,6.72-21.87,6.72-21.51,0-39.02-17.5-39.02-39.02Zm136.72,0c0,21.51-17.5,39.02-39.02,39.02-8.1,0-15.63-2.48-21.87-6.72,7.58-8.63,12.19-19.93,12.19-32.3v-58.68c0-12.36-4.61-23.66-12.19-32.3,6.24-4.24,13.77-6.72,21.87-6.72,21.51,0,39.02,17.5,39.02,39.02v58.68Z"/>
  <g>
    <path class="cls-3" d="m500.67,60.55c-4.56,0-8.26,3.7-8.26,8.26s3.7,8.26,8.26,8.26,8.26-3.7,8.26-8.26-3.7-8.26-8.26-8.26Z"/>
    <path class="cls-3" d="m500.67,24.36c-4.56,0-8.26,3.7-8.26,8.26s3.7,8.26,8.26,8.26,8.26-3.7,8.26-8.26-3.7-8.26-8.26-8.26Z"/>
    <circle class="cls-3" cx="526.26" cy="79.41" r="8.26"/>
    <circle class="cls-3" cx="551.85" cy="53.82" r="8.26"/>
    <circle class="cls-3" cx="536.86" cy="105" r="8.26"/>
    <path class="cls-3" d="m573.05,96.74c-4.56,0-8.26,3.7-8.26,8.26s3.7,8.26,8.26,8.26,8.26-3.7,8.26-8.26-3.7-8.26-8.26-8.26Z"/>
    <circle class="cls-3" cx="526.26" cy="130.59" r="8.26"/>
    <circle class="cls-3" cx="551.85" cy="156.18" r="8.26"/>
    <path class="cls-3" d="m500.67,132.93c-4.56,0-8.26,3.7-8.26,8.26s3.7,8.26,8.26,8.26,8.26-3.7,8.26-8.26-3.7-8.26-8.26-8.26Z"/>
    <path class="cls-3" d="m500.67,169.11c-4.56,0-8.26,3.7-8.26,8.26s3.7,8.26,8.26,8.26,8.26-3.7,8.26-8.26-3.7-8.26-8.26-8.26Z"/>
    <path class="cls-3" d="m469.24,124.75c-3.23,3.23-3.23,8.46,0,11.68,3.23,3.23,8.46,3.23,11.68,0,3.23-3.23,3.23-8.46,0-11.68-3.23-3.23-8.46-3.23-11.68,0Z"/>
    <path class="cls-3" d="m443.65,150.33c-3.23,3.23-3.23,8.46,0,11.68,3.23,3.23,8.46,3.23,11.68,0,3.23-3.23,3.23-8.46,0-11.68-3.23-3.23-8.46-3.23-11.68,0Z"/>
    <path class="cls-3" d="m472.75,105c0-4.56-3.7-8.26-8.26-8.26s-8.26,3.7-8.26,8.26,3.7,8.26,8.26,8.26,8.26-3.7,8.26-8.26Z"/>
    <path class="cls-3" d="m436.56,105c0-4.56-3.7-8.26-8.26-8.26s-8.26,3.7-8.26,8.26,3.7,8.26,8.26,8.26,8.26-3.7,8.26-8.26Z"/>
    <path class="cls-3" d="m469.24,73.57c-3.23,3.23-3.23,8.46,0,11.68,3.23,3.23,8.46,3.23,11.68,0,3.23-3.23,3.23-8.46,0-11.68-3.23-3.23-8.46-3.23-11.68,0Z"/>
    <path class="cls-3" d="m455.34,59.67c3.23-3.23,3.23-8.46,0-11.68-3.23-3.23-8.46-3.23-11.68,0-3.23,3.23-3.23,8.46,0,11.68,3.23,3.23,8.46,3.23,11.68,0Z"/>
    <path class="cls-3" d="m476.14,45.77c4.22-1.75,6.22-6.58,4.47-10.79-1.75-4.22-6.58-6.22-10.79-4.47-4.22,1.75-6.22,6.58-4.47,10.79,1.75,4.22,6.58,6.22,10.79,4.47Z"/>
    <path class="cls-3" d="m525.21,45.77c4.22,1.75,9.05-.26,10.79-4.47,1.75-4.22-.26-9.05-4.47-10.79-4.22-1.75-9.05.26-10.79,4.47-1.75,4.22.26,9.05,4.47,10.79Z"/>
    <path class="cls-3" d="m559.9,80.47c1.75,4.22,6.58,6.22,10.79,4.47,4.22-1.75,6.22-6.58,4.47-10.79-1.75-4.22-6.58-6.22-10.79-4.47-4.22,1.75-6.22,6.58-4.47,10.79Z"/>
    <path class="cls-3" d="m570.7,125.06c-4.22-1.75-9.05.26-10.79,4.47-1.75,4.22.26,9.05,4.47,10.79,4.22,1.75,9.05-.26,10.79-4.47,1.75-4.22-.26-9.05-4.47-10.79Z"/>
    <path class="cls-3" d="m525.21,164.23c-4.22,1.75-6.22,6.58-4.47,10.79,1.75,4.22,6.58,6.22,10.79,4.47,4.22-1.75,6.22-6.58,4.47-10.79-1.75-4.22-6.58-6.22-10.79-4.47Z"/>
    <path class="cls-3" d="m476.14,164.23c-4.22-1.75-9.05.26-10.79,4.47-1.75,4.22.26,9.05,4.47,10.79,4.22,1.75,9.05-.26,10.79-4.47,1.75-4.22-.26-9.05-4.47-10.79Z"/>
    <path class="cls-3" d="m441.44,129.53c-1.75-4.22-6.58-6.22-10.79-4.47-4.22,1.75-6.22,6.58-4.47,10.79,1.75,4.22,6.58,6.22,10.79,4.47,4.22-1.75,6.22-6.58,4.47-10.79Z"/>
    <path class="cls-3" d="m430.65,84.94c4.22,1.75,9.05-.26,10.79-4.47,1.75-4.22-.26-9.05-4.47-10.79-4.22-1.75-9.05.26-10.79,4.47-1.75,4.22.26,9.05,4.47,10.79Z"/>
  </g>
</svg>