<?xml version="1.0" encoding="UTF-8"?>
<svg id="Layer_1" data-name="Layer 1" xmlns="http://www.w3.org/2000/svg" viewBox="0 0 600 210">
  <defs>
    <style>
      .cls-1 {
        fill: #f96e43;
      }

      .cls-1, .cls-2, .cls-3 {
        stroke-width: 0px;
      }

      .cls-2 {
        fill: #ffb41d;
      }

      .cls-3 {
        fill: #f78bd8;
      }
    </style>
  </defs>
  <path class="cls-3" d="m583.11,102.04l-52.07-71.01c-.94-1.28-2.44-2.04-4.03-2.04h-74.8c-1.59,0-3.09.76-4.03,2.04l-52.07,71.01c-1.29,1.76-1.29,4.15,0,5.91l52.07,71.01c.94,1.28,2.44,2.04,4.03,2.04h74.8c1.59,0,3.09-.76,4.03-2.04l52.07-71.01c1.29-1.76,1.29-4.15,0-5.91Zm-13.9-2.04h-60.5l-12.9-17.59,30.25-41.25,43.15,58.84Zm-69.24,5l-10.37,14.14-10.37-14.14,10.37-14.14,10.37,14.14Zm-10.37-31.05l-25.64-34.96h51.27l-25.64,34.96Zm-36.45-32.79l30.25,41.25-12.9,17.59h-60.5l43.15-58.84Zm-43.15,68.84h60.5l12.9,17.59-30.25,41.25-43.15-58.84Zm79.6,26.05l25.64,34.96h-51.27l25.64-34.96Zm36.45,32.8l-30.25-41.25,12.9-17.59h60.5l-43.15,58.84Z"/>
  <g>
    <path class="cls-2" d="m97.31,23.62C52.44,23.62,15.93,60.12,15.93,105s36.51,81.38,81.38,81.38,81.38-36.51,81.38-81.38S142.19,23.62,97.31,23.62Zm0,152.77c-39.36,0-71.38-32.02-71.38-71.38S57.95,33.62,97.31,33.62s71.38,32.02,71.38,71.38-32.02,71.38-71.38,71.38Z"/>
    <path class="cls-2" d="m97.31,54.58c-27.8,0-50.42,22.62-50.42,50.42s22.62,50.42,50.42,50.42,50.42-22.62,50.42-50.42-22.62-50.42-50.42-50.42Zm0,90.84c-22.29,0-40.42-18.13-40.42-40.42s18.13-40.42,40.42-40.42,40.42,18.13,40.42,40.42-18.13,40.42-40.42,40.42Z"/>
    <path class="cls-2" d="m97.31,84.52c-11.29,0-20.48,9.19-20.48,20.48s9.19,20.48,20.48,20.48,20.48-9.19,20.48-20.48-9.19-20.48-20.48-20.48Zm0,30.97c-5.78,0-10.48-4.7-10.48-10.48s4.7-10.48,10.48-10.48,10.48,4.7,10.48,10.48-4.7,10.48-10.48,10.48Z"/>
  </g>
  <path class="cls-1" d="m367.88,92.48l-30.46-3.96s-.06-.12,0-.21l22.27-21.06c4.75-4.49,5.38-11.31,1.54-16.59-3.84-5.28-10.52-6.79-16.26-3.66l-26.97,14.71s-.12-.06-.13-.17l5.64-30.13c1.2-6.42-2.3-12.31-8.51-14.33-6.21-2.02-12.5.69-15.3,6.59l-13.14,27.69-.03.06s-.14.02-.2-.06l-13.14-27.69c-2.8-5.9-9.09-8.61-15.3-6.59-6.21,2.02-9.71,7.91-8.5,14.33l5.65,30.19s-.1.1-.2.07l-26.91-14.68c-5.74-3.13-12.42-1.62-16.26,3.66-3.84,5.28-3.21,12.11,1.54,16.59l22.32,21.11s-.02.14-.12.18l-30.4,3.94c-6.48.84-11,5.99-11,12.52s4.52,11.68,11,12.52l30.46,3.96s.06.12,0,.21l-22.27,21.06c-4.75,4.49-5.38,11.31-1.54,16.59,3.84,5.28,10.52,6.79,16.26,3.66l26.97-14.71s.12.06.13.17l-5.64,30.13c-1.2,6.42,2.29,12.31,8.5,14.33,1.38.45,2.75.66,4.1.66,4.73,0,9.03-2.66,11.21-7.25l13.17-27.75s.14-.02.2.06l13.14,27.69c2.8,5.9,9.09,8.61,15.3,6.59,6.21-2.02,9.71-7.91,8.51-14.33l-5.65-30.19s.1-.1.2-.07l26.91,14.68c5.73,3.13,12.42,1.62,16.26-3.66,3.84-5.28,3.2-12.11-1.54-16.59l-22.32-21.11s.02-.14.12-.17l30.4-3.94c6.48-.84,11-5.99,11-12.52s-4.52-11.68-11-12.52Zm-1.29,15.12l-30.4,3.94c-3.92.51-7.11,3.16-8.33,6.92-1.22,3.76-.2,7.78,2.67,10.49l22.27,21.06c1.46,1.38.83,2.75.32,3.45s-1.62,1.72-3.38.76l-26.91-14.68c-3.47-1.89-7.61-1.63-10.8.7s-4.73,6.18-4,10.06l5.64,30.13c.37,1.97-.95,2.71-1.77,2.98-.82.27-2.32.44-3.18-1.37l-13.14-27.69c-1.69-3.57-5.2-5.79-9.15-5.79s-7.46,2.22-9.15,5.79l-13.14,27.69c-.86,1.81-2.36,1.64-3.18,1.37-.82-.27-2.14-1.01-1.77-2.98l5.64-30.13c.73-3.88-.81-7.74-4-10.06-1.78-1.29-3.85-1.95-5.94-1.95-1.66,0-3.33.41-4.86,1.25l-26.91,14.68c-1.76.96-2.87-.06-3.38-.76-.51-.7-1.14-2.07.32-3.45l22.27-21.06c2.87-2.71,3.9-6.73,2.68-10.49-1.22-3.76-4.41-6.41-8.33-6.92l-30.4-3.94c-1.99-.26-2.29-1.74-2.29-2.6s.3-2.34,2.29-2.6l30.4-3.94c3.92-.51,7.11-3.16,8.33-6.92,1.22-3.76.2-7.78-2.68-10.49l-22.27-21.06c-1.46-1.38-.83-2.75-.32-3.45.51-.7,1.62-1.72,3.38-.76l26.91,14.68c3.47,1.89,7.61,1.63,10.81-.7,3.2-2.32,4.73-6.18,4-10.06l-5.64-30.13c-.37-1.97.95-2.71,1.77-2.98.82-.27,2.32-.44,3.18,1.37l13.14,27.69c1.69,3.57,5.2,5.79,9.15,5.79s7.46-2.22,9.15-5.79l13.14-27.69c.86-1.81,2.36-1.64,3.18-1.37.82.27,2.14,1.01,1.77,2.98l-5.64,30.13c-.73,3.88.81,7.74,4,10.06,3.2,2.32,7.34,2.59,10.8.7l26.91-14.68c1.76-.96,2.87.06,3.38.76.51.7,1.14,2.07-.32,3.45l-22.28,21.06c-2.87,2.71-3.9,6.73-2.67,10.49,1.22,3.76,4.41,6.41,8.33,6.92l30.4,3.94c1.99.26,2.28,1.74,2.28,2.6s-.3,2.34-2.29,2.6Z"/>
</svg>