<?xml version="1.0" encoding="UTF-8"?>
<svg id="Layer_1" data-name="Layer 1" xmlns="http://www.w3.org/2000/svg" viewBox="0 0 600 210">
  <defs>
    <style>
      .cls-1 {
        fill: #189b5c;
      }

      .cls-1, .cls-2, .cls-3 {
        stroke-width: 0px;
      }

      .cls-2 {
        fill: #7ce55e;
      }

      .cls-3 {
        fill: #f78bd8;
      }
    </style>
  </defs>
  <g>
    <path class="cls-1" d="m300,131.21c-4.56,0-8.26,3.7-8.26,8.26s3.7,8.26,8.26,8.26,8.26-3.7,8.26-8.26-3.7-8.26-8.26-8.26Z"/>
    <path class="cls-1" d="m300,165.69c-4.56,0-8.26,3.7-8.26,8.26s3.7,8.26,8.26,8.26,8.26-3.7,8.26-8.26-3.7-8.26-8.26-8.26Z"/>
    <path class="cls-1" d="m300,27.78c-4.56,0-8.26,3.7-8.26,8.26s3.7,8.26,8.26,8.26,8.26-3.7,8.26-8.26-3.7-8.26-8.26-8.26Z"/>
    <path class="cls-1" d="m300,62.26c-4.56,0-8.26,3.7-8.26,8.26s3.7,8.26,8.26,8.26,8.26-3.7,8.26-8.26-3.7-8.26-8.26-8.26Z"/>
    <path class="cls-1" d="m227.13,96.74c-4.56,0-8.26,3.7-8.26,8.26s3.7,8.26,8.26,8.26,8.26-3.7,8.26-8.26-3.7-8.26-8.26-8.26Z"/>
    <path class="cls-1" d="m227.13,131.21c-4.56,0-8.26,3.7-8.26,8.26s3.7,8.26,8.26,8.26,8.26-3.7,8.26-8.26-3.7-8.26-8.26-8.26Z"/>
    <path class="cls-1" d="m227.13,165.69c-4.56,0-8.26,3.7-8.26,8.26s3.7,8.26,8.26,8.26,8.26-3.7,8.26-8.26-3.7-8.26-8.26-8.26Z"/>
    <path class="cls-1" d="m227.13,62.26c-4.56,0-8.26,3.7-8.26,8.26s3.7,8.26,8.26,8.26,8.26-3.7,8.26-8.26-3.7-8.26-8.26-8.26Z"/>
    <circle class="cls-1" cx="263.56" cy="105" r="8.26"/>
    <circle class="cls-1" cx="263.56" cy="139.48" r="8.26"/>
    <circle class="cls-1" cx="263.56" cy="173.95" r="8.26"/>
    <circle class="cls-1" cx="263.56" cy="36.05" r="8.26"/>
    <circle class="cls-1" cx="263.56" cy="70.52" r="8.26"/>
    <path class="cls-1" d="m372.87,96.74c-4.56,0-8.26,3.7-8.26,8.26s3.7,8.26,8.26,8.26,8.26-3.7,8.26-8.26-3.7-8.26-8.26-8.26Z"/>
    <path class="cls-1" d="m372.87,131.21c-4.56,0-8.26,3.7-8.26,8.26s3.7,8.26,8.26,8.26,8.26-3.7,8.26-8.26-3.7-8.26-8.26-8.26Z"/>
    <path class="cls-1" d="m372.87,44.31c4.56,0,8.26-3.7,8.26-8.26s-3.7-8.26-8.26-8.26-8.26,3.7-8.26,8.26,3.7,8.26,8.26,8.26Z"/>
    <path class="cls-1" d="m372.87,62.26c-4.56,0-8.26,3.7-8.26,8.26s3.7,8.26,8.26,8.26,8.26-3.7,8.26-8.26-3.7-8.26-8.26-8.26Z"/>
    <circle class="cls-1" cx="336.44" cy="105" r="8.26"/>
    <circle class="cls-1" cx="336.44" cy="139.48" r="8.26"/>
    <circle class="cls-1" cx="336.44" cy="173.95" r="8.26"/>
    <circle class="cls-1" cx="336.44" cy="36.05" r="8.26"/>
    <circle class="cls-1" cx="336.44" cy="70.52" r="8.26"/>
  </g>
  <g>
    <path class="cls-3" d="m439.64,100.86c-7.52-5.6-14.02-10.43-14.02-19.85s6.49-14.25,14.02-19.85c8.46-6.29,18.04-13.43,18.04-27.86,0-2.76-2.24-5-5-5s-5,2.24-5,5c0,9.42-6.49,14.25-14.02,19.85-8.46,6.29-18.04,13.43-18.04,27.86s9.59,21.57,18.04,27.87c7.52,5.6,14.02,10.43,14.02,19.85s-6.5,14.25-14.02,19.85c-8.46,6.29-18.04,13.43-18.04,27.87,0,2.76,2.24,5,5,5s5-2.24,5-5c0-9.42,6.49-14.25,14.02-19.85,8.46-6.29,18.04-13.43,18.04-27.87s-9.59-21.57-18.04-27.87Z"/>
    <path class="cls-3" d="m479.62,100.95c-7.52-5.6-14.02-10.43-14.02-19.85s6.49-14.25,14.02-19.85c8.46-6.29,18.04-13.43,18.04-27.86,0-2.76-2.24-5-5-5s-5,2.24-5,5c0,9.42-6.49,14.25-14.01,19.85-8.46,6.29-18.04,13.43-18.04,27.87s9.59,21.57,18.04,27.87c7.52,5.6,14.02,10.43,14.02,19.85s-6.49,14.25-14.02,19.85c-8.46,6.29-18.04,13.43-18.04,27.87,0,2.76,2.24,5,5,5s5-2.24,5-5c0-9.42,6.5-14.25,14.02-19.85,8.46-6.29,18.04-13.43,18.04-27.87s-9.59-21.57-18.04-27.87Z"/>
    <path class="cls-3" d="m519.61,101.03c-7.52-5.6-14.02-10.43-14.02-19.85s6.49-14.25,14.02-19.85c8.46-6.29,18.04-13.43,18.04-27.86,0-2.76-2.24-5-5-5s-5,2.24-5,5c0,9.42-6.49,14.25-14.02,19.85-8.46,6.29-18.04,13.43-18.04,27.86s9.59,21.57,18.04,27.87c7.52,5.6,14.02,10.43,14.02,19.85s-6.5,14.25-14.02,19.85c-8.46,6.29-18.04,13.43-18.04,27.87,0,2.76,2.24,5,5,5s5-2.24,5-5c0-9.42,6.49-14.25,14.02-19.85,8.46-6.29,18.04-13.43,18.04-27.87s-9.59-21.57-18.04-27.87Z"/>
    <path class="cls-3" d="m559.6,101.12c-7.52-5.6-14.02-10.43-14.02-19.85s6.49-14.25,14.02-19.85c8.46-6.29,18.04-13.43,18.04-27.86,0-2.76-2.24-5-5-5s-5,2.24-5,5c0,9.42-6.49,14.25-14.01,19.85-8.46,6.29-18.04,13.43-18.04,27.87s9.59,21.57,18.04,27.87c7.52,5.6,14.02,10.43,14.02,19.85s-6.49,14.25-14.02,19.85c-8.46,6.29-18.04,13.43-18.04,27.87,0,2.76,2.24,5,5,5s5-2.24,5-5c0-9.42,6.5-14.25,14.02-19.85,8.46-6.29,18.04-13.43,18.04-27.87s-9.59-21.57-18.04-27.87Z"/>
  </g>
  <path class="cls-2" d="m149.37,105l37.9-67.17c.87-1.55.86-3.44-.04-4.98-.89-1.53-2.54-2.48-4.31-2.48H25.76c-1.78,0-3.42.94-4.31,2.48-.9,1.53-.91,3.43-.04,4.98l37.9,67.17-37.9,67.17c-.87,1.55-.86,3.44.04,4.98.89,1.53,2.54,2.48,4.31,2.48h157.16c1.78,0,3.42-.94,4.31-2.48.9-1.53.91-3.43.04-4.98l-37.9-67.17Zm-5.74-10.17l-30.73-54.46h61.47l-30.73,54.46Zm-5.74,10.17l-33.55,59.46-33.55-59.46,33.55-59.46,33.55,59.46ZM34.32,40.37h61.47l-30.73,54.46-30.73-54.46Zm30.73,74.79l30.73,54.46h-61.47l30.73-54.46Zm47.85,54.46l30.73-54.46,30.73,54.46h-61.47Z"/>
</svg>