<?xml version="1.0" encoding="UTF-8"?>
<svg id="Layer_1" data-name="Layer 1" xmlns="http://www.w3.org/2000/svg" viewBox="0 0 600 210">
  <defs>
    <style>
      .cls-1 {
        fill: #f96e43;
      }

      .cls-1, .cls-2, .cls-3 {
        stroke-width: 0px;
      }

      .cls-2 {
        fill: #7ce55e;
      }

      .cls-3 {
        fill: #ffb41d;
      }
    </style>
  </defs>
  <path class="cls-3" d="m526,26.59c-11,0-21.17,3.64-29.36,9.79-8.19-6.14-18.36-9.79-29.36-9.79-27.04,0-49.04,22-49.04,49.04v58.73c0,27.04,22,49.04,49.04,49.04,11,0,21.17-3.64,29.36-9.79,8.19,6.14,18.36,9.79,29.36,9.79,27.04,0,49.04-22,49.04-49.04v-58.73c0-27.04-22-49.04-49.04-49.04Zm-29.36,133.46c-6.02-6.87-9.68-15.86-9.68-25.69v-58.73c0-9.83,3.66-18.82,9.68-25.69,6.02,6.87,9.68,15.86,9.68,25.69v58.73c0,9.83-3.66,18.82-9.68,25.69Zm-68.41-25.69v-58.73c0-21.53,17.51-39.04,39.04-39.04,8.1,0,15.64,2.48,21.88,6.73-7.59,8.64-12.2,19.95-12.2,32.32v58.73c0,12.37,4.61,23.68,12.2,32.32-6.25,4.24-13.78,6.73-21.88,6.73-21.53,0-39.04-17.52-39.04-39.04Zm136.81,0c0,21.53-17.51,39.04-39.04,39.04-8.1,0-15.64-2.48-21.88-6.73,7.59-8.64,12.2-19.95,12.2-32.32v-58.73c0-12.37-4.61-23.68-12.2-32.32,6.25-4.24,13.78-6.73,21.88-6.73,21.53,0,39.04,17.51,39.04,39.04v58.73Z"/>
  <path class="cls-1" d="m373.88,28.43c-2.76,0-5,2.24-5,5v126.63c0,7.36-5.99,13.35-13.35,13.35s-13.35-5.99-13.35-13.35V49.94c0-12.88-10.48-23.35-23.35-23.35s-23.35,10.48-23.35,23.35v110.11c0,7.36-5.99,13.35-13.35,13.35s-13.35-5.99-13.35-13.35V49.94c0-12.88-10.48-23.35-23.35-23.35s-23.35,10.48-23.35,23.35v126.63c0,2.76,2.24,5,5,5s5-2.24,5-5V49.94c0-7.36,5.99-13.35,13.35-13.35s13.35,5.99,13.35,13.35v110.11c0,12.88,10.48,23.35,23.35,23.35s23.35-10.48,23.35-23.35V49.94c0-7.36,5.99-13.35,13.35-13.35s13.35,5.99,13.35,13.35v110.11c0,12.88,10.48,23.35,23.35,23.35s23.35-10.48,23.35-23.35V33.43c0-2.76-2.24-5-5-5Z"/>
  <g>
    <path class="cls-2" d="m104.34,23.62c-44.88,0-81.38,36.51-81.38,81.38s36.51,81.38,81.38,81.38,81.38-36.51,81.38-81.38S149.22,23.62,104.34,23.62Zm0,152.77c-39.36,0-71.38-32.02-71.38-71.38S64.98,33.62,104.34,33.62s71.38,32.02,71.38,71.38-32.02,71.38-71.38,71.38Z"/>
    <path class="cls-2" d="m104.34,54.58c-27.8,0-50.42,22.62-50.42,50.42s22.62,50.42,50.42,50.42,50.42-22.62,50.42-50.42-22.62-50.42-50.42-50.42Zm0,90.84c-22.29,0-40.42-18.13-40.42-40.42s18.13-40.42,40.42-40.42,40.42,18.13,40.42,40.42-18.13,40.42-40.42,40.42Z"/>
    <path class="cls-2" d="m104.34,84.52c-11.29,0-20.48,9.19-20.48,20.48s9.19,20.48,20.48,20.48,20.48-9.19,20.48-20.48-9.19-20.48-20.48-20.48Zm0,30.97c-5.78,0-10.48-4.7-10.48-10.48s4.7-10.48,10.48-10.48,10.48,4.7,10.48,10.48-4.7,10.48-10.48,10.48Z"/>
  </g>
</svg>