<?xml version="1.0" encoding="UTF-8"?>
<svg id="Layer_1" data-name="Layer 1" xmlns="http://www.w3.org/2000/svg" viewBox="0 0 600 210">
  <defs>
    <style>
      .cls-1 {
        fill: #189b5c;
      }

      .cls-1, .cls-2, .cls-3 {
        stroke-width: 0px;
      }

      .cls-2 {
        fill: #3d9dd8;
      }

      .cls-3 {
        fill: #f78bd8;
      }
    </style>
  </defs>
  <path class="cls-1" d="m393.44,102.04l-52.04-70.96c-.94-1.28-2.44-2.04-4.03-2.04h-74.74c-1.59,0-3.09.76-4.03,2.04l-52.04,70.96c-1.29,1.76-1.29,4.15,0,5.91l52.04,70.96c.94,1.28,2.44,2.04,4.03,2.04h74.74c1.59,0,3.09-.76,4.03-2.04l52.04-70.96c1.29-1.76,1.29-4.15,0-5.91Zm-13.89-2.04h-60.46l-12.89-17.58,30.23-41.22,43.12,58.8Zm-69.19,5l-10.36,14.13-10.36-14.13,10.36-14.13,10.36,14.13Zm-10.36-31.03l-25.62-34.93h51.24l-25.62,34.93Zm-36.43-32.77l30.23,41.22-12.89,17.58h-60.46l43.12-58.8Zm-43.12,68.8h60.46l12.89,17.58-30.23,41.22-43.12-58.8Zm79.55,26.03l25.62,34.93h-51.24l25.62-34.93Zm36.43,32.77l-30.23-41.22,12.89-17.58h60.46l-43.12,58.8Z"/>
  <path class="cls-3" d="m569.99,28.48c-2.76,0-5,2.24-5,5v126.54c0,7.36-5.99,13.34-13.34,13.34s-13.34-5.99-13.34-13.34V49.98c0-12.87-10.47-23.34-23.34-23.34s-23.34,10.47-23.34,23.34v110.03c0,7.36-5.99,13.34-13.34,13.34s-13.34-5.99-13.34-13.34V49.98c0-12.87-10.47-23.34-23.34-23.34s-23.34,10.47-23.34,23.34v126.54c0,2.76,2.24,5,5,5s5-2.24,5-5V49.98c0-7.36,5.99-13.34,13.34-13.34s13.34,5.99,13.34,13.34v110.03c0,12.87,10.47,23.34,23.34,23.34s23.34-10.47,23.34-23.34V49.98c0-7.36,5.99-13.34,13.34-13.34s13.34,5.99,13.34,13.34v110.03c0,12.87,10.47,23.34,23.34,23.34s23.34-10.47,23.34-23.34V33.48c0-2.76-2.24-5-5-5Z"/>
  <path class="cls-2" d="m179.99,110c2.76,0,5-2.24,5-5s-2.24-5-5-5h-25.63v-33.03h25.63c2.76,0,5-2.24,5-5s-2.24-5-5-5h-25.63v-25.63c0-2.76-2.24-5-5-5s-5,2.24-5,5v25.63h-33.03v-25.63c0-2.76-2.24-5-5-5s-5,2.24-5,5v25.63h-33.03v-25.63c0-2.76-2.24-5-5-5s-5,2.24-5,5v25.63h-25.63c-2.76,0-5,2.24-5,5s2.24,5,5,5h25.63v33.03h-25.63c-2.76,0-5,2.24-5,5s2.24,5,5,5h25.63v33.03h-25.63c-2.76,0-5,2.24-5,5s2.24,5,5,5h25.63v25.63c0,2.76,2.24,5,5,5s5-2.24,5-5v-25.63h33.03v25.63c0,2.76,2.24,5,5,5s5-2.24,5-5v-25.63h33.03v25.63c0,2.76,2.24,5,5,5s5-2.24,5-5v-25.63h25.63c2.76,0,5-2.24,5-5s-2.24-5-5-5h-25.63v-33.03h25.63Zm-35.62-43.02v33.03h-33.03v-33.03h33.03Zm-76.06,0h33.03v33.03h-33.03v-33.03Zm0,76.06v-33.03h33.03v33.03h-33.03Zm76.06,0h-33.03v-33.03h33.03v33.03Z"/>
</svg>