<?xml version="1.0" encoding="UTF-8"?>
<svg id="Layer_1" data-name="Layer 1" xmlns="http://www.w3.org/2000/svg" viewBox="0 0 600 210">
  <defs>
    <style>
      .cls-1 {
        fill: #f96e43;
      }

      .cls-1, .cls-2, .cls-3 {
        stroke-width: 0px;
      }

      .cls-2 {
        fill: #ffb41d;
      }

      .cls-3 {
        fill: #f78bd8;
      }
    </style>
  </defs>
  <path class="cls-2" d="m397.44,102.04l-52.04-70.96c-.94-1.28-2.44-2.04-4.03-2.04h-74.74c-1.59,0-3.09.76-4.03,2.04l-52.04,70.96c-1.29,1.76-1.29,4.15,0,5.91l52.04,70.96c.94,1.28,2.44,2.04,4.03,2.04h74.74c1.59,0,3.09-.76,4.03-2.04l52.04-70.96c1.29-1.76,1.29-4.15,0-5.91Zm-13.89-2.04h-60.46l-12.89-17.58,30.23-41.22,43.12,58.8Zm-69.19,5l-10.36,14.13-10.36-14.13,10.36-14.13,10.36,14.13Zm-10.36-31.03l-25.62-34.93h51.24l-25.62,34.93Zm-36.43-32.77l30.23,41.22-12.89,17.58h-60.46l43.12-58.8Zm-43.12,68.8h60.46l12.89,17.58-30.23,41.22-43.12-58.8Zm79.55,26.03l25.62,34.93h-51.24l25.62-34.93Zm36.43,32.77l-30.23-41.22,12.89-17.58h60.46l-43.12,58.8Z"/>
  <g>
    <path class="cls-1" d="m570.92,32.62c-.03-.15-.09-.29-.13-.43-.05-.17-.09-.34-.15-.5-.07-.17-.17-.33-.26-.5-.07-.12-.12-.25-.2-.36-.37-.55-.84-1.02-1.39-1.39-.12-.08-.25-.13-.37-.2-.16-.09-.32-.19-.49-.26-.16-.07-.33-.11-.5-.16-.14-.04-.28-.1-.43-.13-.32-.06-.65-.1-.98-.1h-49.45c-2.76,0-5,2.24-5,5s2.24,5,5,5h37.39l-40.92,40.92c-1.95,1.95-1.95,5.11,0,7.07.97.98,2.25,1.46,3.53,1.46s2.56-.49,3.53-1.46l40.92-40.92v37.39c0,2.76,2.24,5,5,5s5-2.24,5-5v-49.45c0-.33-.03-.66-.1-.98Z"/>
    <path class="cls-1" d="m481.47,32.19c-.05-.17-.09-.34-.15-.5-.07-.17-.17-.33-.26-.5-.07-.12-.12-.25-.2-.36-.37-.55-.84-1.02-1.39-1.39-.12-.08-.25-.13-.37-.2-.16-.09-.32-.19-.49-.26-.16-.07-.33-.11-.5-.16-.14-.04-.28-.1-.43-.13-.32-.06-.65-.1-.98-.1h-49.45c-2.76,0-5,2.24-5,5s2.24,5,5,5h37.39l-40.92,40.92c-1.95,1.95-1.95,5.11,0,7.07.97.98,2.25,1.46,3.53,1.46s2.56-.49,3.53-1.46l40.92-40.92v37.39c0,2.76,2.24,5,5,5s5-2.24,5-5v-49.45c0-.33-.03-.66-.1-.98-.03-.15-.09-.29-.13-.43Z"/>
    <path class="cls-1" d="m569.56,123.41c-1.95-1.95-5.12-1.95-7.07,0l-40.92,40.92v-37.39c0-2.76-2.24-5-5-5s-5,2.24-5,5v49.45c0,.33.03.66.1.98.03.15.09.29.13.44.05.17.09.34.15.5.07.17.17.33.26.5.07.12.12.25.2.36.37.55.84,1.02,1.39,1.39.12.08.24.13.37.2.16.09.32.19.49.26.16.07.33.11.5.15.14.04.28.1.43.13.32.06.65.1.98.1h49.45c2.76,0,5-2.24,5-5s-2.24-5-5-5h-37.39l40.92-40.92c1.95-1.95,1.95-5.11,0-7.07Z"/>
    <path class="cls-1" d="m481.47,125.53c-.05-.17-.09-.34-.15-.5-.07-.17-.17-.33-.26-.5-.07-.12-.12-.25-.2-.36-.37-.55-.84-1.02-1.39-1.39-.12-.08-.25-.13-.37-.2-.16-.09-.32-.19-.49-.26-.16-.07-.33-.11-.5-.16-.14-.04-.28-.1-.43-.13-.32-.06-.65-.1-.98-.1h-49.45c-2.76,0-5,2.24-5,5s2.24,5,5,5h37.39l-40.92,40.92c-1.95,1.95-1.95,5.11,0,7.07.97.98,2.25,1.46,3.53,1.46s2.56-.49,3.53-1.46l40.92-40.92v37.39c0,2.76,2.24,5,5,5s5-2.24,5-5v-49.45c0-.33-.03-.66-.1-.98-.03-.15-.09-.29-.13-.43Z"/>
  </g>
  <g>
    <path class="cls-3" d="m105.34,131.21c-4.56,0-8.26,3.7-8.26,8.26s3.7,8.26,8.26,8.26,8.26-3.7,8.26-8.26-3.7-8.26-8.26-8.26Z"/>
    <path class="cls-3" d="m105.34,165.69c-4.56,0-8.26,3.7-8.26,8.26s3.7,8.26,8.26,8.26,8.26-3.7,8.26-8.26-3.7-8.26-8.26-8.26Z"/>
    <path class="cls-3" d="m105.34,27.78c-4.56,0-8.26,3.7-8.26,8.26s3.7,8.26,8.26,8.26,8.26-3.7,8.26-8.26-3.7-8.26-8.26-8.26Z"/>
    <path class="cls-3" d="m105.34,62.26c-4.56,0-8.26,3.7-8.26,8.26s3.7,8.26,8.26,8.26,8.26-3.7,8.26-8.26-3.7-8.26-8.26-8.26Z"/>
    <path class="cls-3" d="m32.47,96.74c-4.56,0-8.26,3.7-8.26,8.26s3.7,8.26,8.26,8.26,8.26-3.7,8.26-8.26-3.7-8.26-8.26-8.26Z"/>
    <path class="cls-3" d="m32.47,131.21c-4.56,0-8.26,3.7-8.26,8.26s3.7,8.26,8.26,8.26,8.26-3.7,8.26-8.26-3.7-8.26-8.26-8.26Z"/>
    <path class="cls-3" d="m32.47,165.69c-4.56,0-8.26,3.7-8.26,8.26s3.7,8.26,8.26,8.26,8.26-3.7,8.26-8.26-3.7-8.26-8.26-8.26Z"/>
    <path class="cls-3" d="m32.47,62.26c-4.56,0-8.26,3.7-8.26,8.26s3.7,8.26,8.26,8.26,8.26-3.7,8.26-8.26-3.7-8.26-8.26-8.26Z"/>
    <circle class="cls-3" cx="68.91" cy="105" r="8.26"/>
    <circle class="cls-3" cx="68.91" cy="139.48" r="8.26"/>
    <circle class="cls-3" cx="68.91" cy="173.95" r="8.26"/>
    <circle class="cls-3" cx="68.91" cy="36.05" r="8.26"/>
    <circle class="cls-3" cx="68.91" cy="70.52" r="8.26"/>
    <path class="cls-3" d="m178.22,96.74c-4.56,0-8.26,3.7-8.26,8.26s3.7,8.26,8.26,8.26,8.26-3.7,8.26-8.26-3.7-8.26-8.26-8.26Z"/>
    <path class="cls-3" d="m178.22,131.21c-4.56,0-8.26,3.7-8.26,8.26s3.7,8.26,8.26,8.26,8.26-3.7,8.26-8.26-3.7-8.26-8.26-8.26Z"/>
    <path class="cls-3" d="m178.22,44.31c4.56,0,8.26-3.7,8.26-8.26s-3.7-8.26-8.26-8.26-8.26,3.7-8.26,8.26,3.7,8.26,8.26,8.26Z"/>
    <path class="cls-3" d="m178.22,62.26c-4.56,0-8.26,3.7-8.26,8.26s3.7,8.26,8.26,8.26,8.26-3.7,8.26-8.26-3.7-8.26-8.26-8.26Z"/>
    <circle class="cls-3" cx="141.78" cy="105" r="8.26"/>
    <circle class="cls-3" cx="141.78" cy="139.48" r="8.26"/>
    <circle class="cls-3" cx="141.78" cy="173.95" r="8.26"/>
    <circle class="cls-3" cx="141.78" cy="36.05" r="8.26"/>
    <circle class="cls-3" cx="141.78" cy="70.52" r="8.26"/>
  </g>
</svg>