<?xml version="1.0" encoding="UTF-8"?>
<svg id="Layer_1" data-name="Layer 1" xmlns="http://www.w3.org/2000/svg" viewBox="0 0 600 210">
  <defs>
    <style>
      .cls-1 {
        fill: #f96e43;
      }

      .cls-1, .cls-2, .cls-3 {
        stroke-width: 0px;
      }

      .cls-2 {
        fill: #189b5c;
      }

      .cls-3 {
        fill: #ffb41d;
      }
    </style>
  </defs>
  <path class="cls-2" d="m179.7,28.48c-2.76,0-5,2.24-5,5v126.54c0,7.36-5.99,13.34-13.34,13.34s-13.34-5.99-13.34-13.34V49.98c0-12.87-10.47-23.34-23.34-23.34s-23.34,10.47-23.34,23.34v110.03c0,7.36-5.99,13.34-13.34,13.34s-13.34-5.99-13.34-13.34V49.98c0-12.87-10.47-23.34-23.34-23.34s-23.34,10.47-23.34,23.34v126.54c0,2.76,2.24,5,5,5s5-2.24,5-5V49.98c0-7.36,5.99-13.34,13.34-13.34s13.34,5.99,13.34,13.34v110.03c0,12.87,10.47,23.34,23.34,23.34s23.34-10.47,23.34-23.34V49.98c0-7.36,5.99-13.34,13.34-13.34s13.34,5.99,13.34,13.34v110.03c0,12.87,10.47,23.34,23.34,23.34s23.34-10.47,23.34-23.34V33.48c0-2.76-2.24-5-5-5Z"/>
  <g>
    <path class="cls-3" d="m300,60.55c-4.56,0-8.26,3.7-8.26,8.26s3.7,8.26,8.26,8.26,8.26-3.7,8.26-8.26-3.7-8.26-8.26-8.26Z"/>
    <path class="cls-3" d="m300,24.36c-4.56,0-8.26,3.7-8.26,8.26s3.7,8.26,8.26,8.26,8.26-3.7,8.26-8.26-3.7-8.26-8.26-8.26Z"/>
    <circle class="cls-3" cx="325.59" cy="79.41" r="8.26"/>
    <circle class="cls-3" cx="351.18" cy="53.82" r="8.26"/>
    <circle class="cls-3" cx="336.19" cy="105" r="8.26"/>
    <path class="cls-3" d="m372.37,96.74c-4.56,0-8.26,3.7-8.26,8.26s3.7,8.26,8.26,8.26,8.26-3.7,8.26-8.26-3.7-8.26-8.26-8.26Z"/>
    <circle class="cls-3" cx="325.59" cy="130.59" r="8.26"/>
    <circle class="cls-3" cx="351.18" cy="156.18" r="8.26"/>
    <path class="cls-3" d="m300,132.93c-4.56,0-8.26,3.7-8.26,8.26s3.7,8.26,8.26,8.26,8.26-3.7,8.26-8.26-3.7-8.26-8.26-8.26Z"/>
    <path class="cls-3" d="m300,169.11c-4.56,0-8.26,3.7-8.26,8.26s3.7,8.26,8.26,8.26,8.26-3.7,8.26-8.26-3.7-8.26-8.26-8.26Z"/>
    <path class="cls-3" d="m268.57,124.75c-3.23,3.23-3.23,8.46,0,11.68,3.23,3.23,8.46,3.23,11.68,0,3.23-3.23,3.23-8.46,0-11.68-3.23-3.23-8.46-3.23-11.68,0Z"/>
    <path class="cls-3" d="m242.98,150.33c-3.23,3.23-3.23,8.46,0,11.68,3.23,3.23,8.46,3.23,11.68,0,3.23-3.23,3.23-8.46,0-11.68-3.23-3.23-8.46-3.23-11.68,0Z"/>
    <path class="cls-3" d="m272.07,105c0-4.56-3.7-8.26-8.26-8.26s-8.26,3.7-8.26,8.26,3.7,8.26,8.26,8.26,8.26-3.7,8.26-8.26Z"/>
    <path class="cls-3" d="m235.89,105c0-4.56-3.7-8.26-8.26-8.26s-8.26,3.7-8.26,8.26,3.7,8.26,8.26,8.26,8.26-3.7,8.26-8.26Z"/>
    <path class="cls-3" d="m268.57,73.57c-3.23,3.23-3.23,8.46,0,11.68,3.23,3.23,8.46,3.23,11.68,0,3.23-3.23,3.23-8.46,0-11.68-3.23-3.23-8.46-3.23-11.68,0Z"/>
    <path class="cls-3" d="m254.67,59.67c3.23-3.23,3.23-8.46,0-11.68-3.23-3.23-8.46-3.23-11.68,0-3.23,3.23-3.23,8.46,0,11.68,3.23,3.23,8.46,3.23,11.68,0Z"/>
    <path class="cls-3" d="m275.47,45.77c4.22-1.75,6.22-6.58,4.47-10.79-1.75-4.22-6.58-6.22-10.79-4.47-4.22,1.75-6.22,6.58-4.47,10.79,1.75,4.22,6.58,6.22,10.79,4.47Z"/>
    <path class="cls-3" d="m324.53,45.77c4.22,1.75,9.05-.26,10.79-4.47,1.75-4.22-.26-9.05-4.47-10.79-4.22-1.75-9.05.26-10.79,4.47-1.75,4.22.26,9.05,4.47,10.79Z"/>
    <path class="cls-3" d="m359.23,80.47c1.75,4.22,6.58,6.22,10.79,4.47,4.22-1.75,6.22-6.58,4.47-10.79-1.75-4.22-6.58-6.22-10.79-4.47-4.22,1.75-6.22,6.58-4.47,10.79Z"/>
    <path class="cls-3" d="m370.03,125.06c-4.22-1.75-9.05.26-10.79,4.47-1.75,4.22.26,9.05,4.47,10.79,4.22,1.75,9.05-.26,10.79-4.47,1.75-4.22-.26-9.05-4.47-10.79Z"/>
    <path class="cls-3" d="m324.53,164.23c-4.22,1.75-6.22,6.58-4.47,10.79,1.75,4.22,6.58,6.22,10.79,4.47,4.22-1.75,6.22-6.58,4.47-10.79-1.75-4.22-6.58-6.22-10.79-4.47Z"/>
    <path class="cls-3" d="m275.47,164.23c-4.22-1.75-9.05.26-10.79,4.47-1.75,4.22.26,9.05,4.47,10.79,4.22,1.75,9.05-.26,10.79-4.47,1.75-4.22-.26-9.05-4.47-10.79Z"/>
    <path class="cls-3" d="m240.77,129.53c-1.75-4.22-6.58-6.22-10.79-4.47-4.22,1.75-6.22,6.58-4.47,10.79,1.75,4.22,6.58,6.22,10.79,4.47,4.22-1.75,6.22-6.58,4.47-10.79Z"/>
    <path class="cls-3" d="m229.97,84.94c4.22,1.75,9.05-.26,10.79-4.47,1.75-4.22-.26-9.05-4.47-10.79-4.22-1.75-9.05.26-10.79,4.47-1.75,4.22.26,9.05,4.47,10.79Z"/>
  </g>
  <path class="cls-1" d="m536.66,105l37.9-67.17c.87-1.55.86-3.44-.04-4.98-.89-1.53-2.54-2.48-4.31-2.48h-157.16c-1.78,0-3.42.94-4.31,2.48-.9,1.53-.91,3.43-.04,4.98l37.9,67.17-37.9,67.17c-.87,1.55-.86,3.44.04,4.98.89,1.53,2.54,2.48,4.31,2.48h157.16c1.78,0,3.42-.94,4.31-2.48.9-1.53.91-3.43.04-4.98l-37.9-67.17Zm-5.74-10.17l-30.73-54.46h61.47l-30.73,54.46Zm-5.74,10.17l-33.55,59.46-33.55-59.46,33.55-59.46,33.55,59.46Zm-103.58-64.63h61.47l-30.73,54.46-30.73-54.46Zm30.73,74.79l30.73,54.46h-61.47l30.73-54.46Zm47.85,54.46l30.73-54.46,30.73,54.46h-61.47Z"/>
</svg>